<?xml version="1.0" encoding="UTF-8"?>
<svg width="448px" height="140px" viewBox="0 0 448 140" version="1.1" xmlns="http://www.w3.org/2000/svg" xmlns:xlink="http://www.w3.org/1999/xlink">
    <!-- Generator: Sketch 49.3 (51167) - http://www.bohemiancoding.com/sketch -->
    <title>Logo neg</title>
    <desc>Created with Sketch.</desc>
    <defs></defs>
    <g id="Logo-neg" stroke="none" stroke-width="1" fill="none" fill-rule="evenodd">
        <g id="Group" fill="#FFFFFF">
            <path d="M211.364648,0.499 L204.654659,17.999 L191.237184,42.259 L170.458994,57.249 L165.113028,62.264 L161.188648,68.249 L155.312089,63.929 L143.891844,81.9565 L145.954145,81.9565 L155.785117,66.434 L161.641654,70.744 L161.666682,70.7065 L178.718212,81.9565 L178.783285,81.9565 L185.763575,71.9165 L196.367911,71.7315 L216.410279,42.409 L251.602056,81.9565 L253.927151,81.9565 L218.657788,42.3165 L243.833385,46.989 L244.997184,32.369 L236.109765,14.9615 L225.27267,6.1365 L211.364648,0.499 Z M212.358257,2.7765 L223.738458,7.3465 L222.004022,16.7265 L206.731978,17.434 L212.358257,2.7765 Z M217.408894,40.319 L223.585788,17.7165 L225.312715,8.409 L234.728223,16.079 L243.222704,32.7265 L242.256626,44.929 L217.408894,40.319 Z M162.61524,69.2465 L166.381944,63.459 L171.562726,58.584 L192.56867,43.439 L205.971128,19.209 L221.578547,18.484 L215.519285,40.6265 L195.439374,70.0065 L184.84505,70.194 L178.307754,79.5965 L162.61524,69.2465 Z" id="Fill-1"></path>
            <path d="M303.700201,83.8655 L271.344089,56.233 L263.620469,50.8905 L258.357095,61.1055 L279.338011,82.6005 L278.09162,83.813 L256.675218,61.873 C256.414927,61.603 256.352358,61.198 256.522547,60.8655 L262.526749,49.2155 C262.64438,48.9955 262.849609,48.8305 263.087374,48.7705 C263.332648,48.708 263.592939,48.758 263.798168,48.898 L272.405274,54.8555 L304.828961,82.543 L303.700201,83.8655 Z" id="Fill-2"></path>
            <path d="M211.074825,2.131 L222.014534,18.0535 L222.730333,17.561 L222.264813,18.2935 L242.577484,31.2035 L243.511026,29.7385 L223.34602,16.921 L212.508925,1.1435 L211.074825,2.131 Z M243.168143,37.301 L256.405417,50.481 L263.298109,50.481 L263.298109,48.7435 L257.123718,48.7435 L244.394512,36.071 L243.168143,37.301 Z M195.272188,71.4685 L205.270847,81.956 L207.671026,81.956 L196.533596,70.271 L195.272188,71.4685 Z" id="Fill-4"></path>
            <path d="M279.273439,118.75825 L291.942579,99.31075 L291.942579,99.24575 L280.652478,99.24575 C280.427227,99.24575 280.24202,99.06075 280.24202,98.77825 L280.24202,98.28075 C280.24202,98.06575 280.427227,97.87325 280.652478,97.87325 L293.504322,97.87325 C293.752098,97.87325 293.909774,98.06575 293.909774,98.28075 L293.909774,98.77825 L281.208098,118.29325 L281.208098,118.32325 L292.84859,118.32325 C293.096366,118.32325 293.254042,118.50825 293.254042,118.72825 L293.254042,119.29075 C293.254042,119.51075 293.096366,119.69575 292.84859,119.69575 L279.713931,119.69575 C279.458646,119.69575 279.273439,119.53825 279.273439,119.32075 L279.273439,118.75825 Z" id="Fill-6"></path>
            <path d="M304.516612,98.2795 C304.516612,98.0645 304.706825,97.8745 304.922065,97.8745 L317.436031,97.8745 C317.656277,97.8745 317.841484,98.0645 317.841484,98.2795 L317.841484,98.812 C317.841484,99.032 317.656277,99.217 317.436031,99.217 L306.018288,99.217 L306.018288,107.8195 L315.906825,107.8195 C316.12707,107.8195 316.317283,108.007 316.317283,108.227 L316.317283,108.752 C316.317283,108.972 316.12707,109.1595 315.906825,109.1595 L306.018288,109.1595 L306.018288,118.387 L317.436031,118.387 C317.656277,118.387 317.841484,118.572 317.841484,118.792 L317.841484,119.2895 C317.841484,119.5095 317.656277,119.6945 317.436031,119.6945 L304.922065,119.6945 C304.706825,119.6945 304.516612,119.5095 304.516612,119.2895 L304.516612,98.2795 Z" id="Fill-8"></path>
            <path d="M337.502677,109.969 C340.498521,109.969 343.021336,107.634 343.021336,104.544 C343.021336,101.584 340.498521,99.309 337.472644,99.309 L330.917828,99.309 L330.917828,109.969 L337.502677,109.969 Z M329.421158,98.279 C329.421158,98.064 329.573828,97.874 329.82661,97.874 L337.565247,97.874 C341.374498,97.874 344.523012,100.7465 344.523012,104.544 C344.523012,107.694 342.338074,110.219 339.374766,111.0615 L343.92985,119.134 C344.087526,119.384 344.022454,119.6965 343.709604,119.6965 L342.743526,119.6965 C342.52328,119.6965 342.400644,119.604 342.30804,119.4115 L337.780487,111.244 C337.375035,111.2765 337.034655,111.2765 336.626699,111.2765 L330.887794,111.2765 L330.887794,119.2915 C330.887794,119.509 330.697582,119.6965 330.384733,119.6965 L329.82661,119.6965 C329.608867,119.6965 329.421158,119.509 329.421158,119.2915 L329.421158,98.279 Z" id="Fill-10"></path>
            <path d="M358.629756,97.7815 C358.65979,97.659 358.78493,97.5615 358.907566,97.5615 L359.250449,97.5615 C359.405622,97.5615 359.500728,97.6265 359.563298,97.7815 L365.990472,116.9165 L366.055544,116.9165 L372.512751,97.7815 C372.575321,97.6265 372.667924,97.5615 372.8256,97.5615 L373.168483,97.5615 C373.293622,97.5615 373.416259,97.659 373.451298,97.7815 L377.87874,119.2915 C377.943812,119.604 377.81617,119.6965 377.53836,119.6965 L376.790025,119.6965 C376.599812,119.6965 376.447142,119.539 376.412103,119.354 L372.88817,101.0865 L372.8256,101.0865 L366.523566,119.754 C366.460997,119.944 366.270784,120.009 366.083075,120.009 L365.957935,120.009 C365.805265,120.009 365.615053,119.974 365.552483,119.754 L359.250449,101.0865 L359.187879,101.0865 L355.661444,119.354 C355.628907,119.539 355.476237,119.6965 355.29103,119.6965 L354.537689,119.6965 C354.259879,119.6965 354.137242,119.604 354.194807,119.2915 L358.629756,97.7815 Z" id="Fill-12"></path>
            <path d="M401.284612,112.46425 L395.946154,99.90175 L395.88859,99.90175 L390.457528,112.46425 L401.284612,112.46425 Z M385.867406,119.31925 L395.478132,97.62425 C395.540702,97.50425 395.698378,97.41175 395.853551,97.41175 L395.946154,97.41175 C396.10383,97.41175 396.259003,97.43925 396.351607,97.62425 L405.86973,119.31925 C405.932299,119.50425 405.932299,119.69675 405.59192,119.69675 L404.778512,119.69675 C404.560769,119.69675 404.403093,119.53925 404.340523,119.41175 L401.812702,113.67925 L389.8944,113.67925 L387.401618,119.41175 C387.339048,119.53925 387.176366,119.69675 386.961126,119.69675 L386.087651,119.69675 C385.867406,119.69675 385.774802,119.56925 385.867406,119.31925 Z" id="Fill-14"></path>
            <path d="M417.699432,99.217 L411.740282,99.217 C411.427432,99.217 411.334829,99.027 411.334829,98.7495 L411.334829,98.2795 C411.334829,98.0295 411.520036,97.8795 411.740282,97.8795 L425.155254,97.8795 C425.408036,97.8795 425.560706,98.0645 425.560706,98.2795 L425.560706,98.812 C425.560706,99.027 425.408036,99.217 425.155254,99.217 L419.166069,99.217 L419.166069,119.2895 C419.166069,119.5095 418.980863,119.6945 418.668013,119.6945 L418.104885,119.6945 C417.884639,119.6945 417.699432,119.5095 417.699432,119.2895 L417.699432,99.217 Z" id="Fill-16"></path>
            <path d="M439.447455,99.217 L433.488304,99.217 C433.175455,99.217 433.082851,99.027 433.082851,98.7495 L433.082851,98.2795 C433.082851,98.0295 433.268058,97.8795 433.488304,97.8795 L446.905779,97.8795 C447.156058,97.8795 447.313734,98.0645 447.313734,98.2795 L447.313734,98.812 C447.313734,99.027 447.156058,99.217 446.905779,99.217 L440.914092,99.217 L440.914092,119.2895 C440.914092,119.5095 440.728885,119.6945 440.421041,119.6945 L439.852907,119.6945 C439.632661,119.6945 439.447455,119.5095 439.447455,119.2895 L439.447455,99.217 Z" id="Fill-18"></path>
            <path d="M14.0947307,112.23475 L10.2829765,103.75725 L10.1278034,103.75725 L6.34858547,112.23475 L14.0947307,112.23475 Z M0.0640715084,118.79725 L9.57218324,97.97725 C9.66478659,97.78725 9.94259665,97.63475 10.095267,97.63475 L10.4081162,97.63475 C10.5607866,97.63475 10.8410994,97.78725 10.9312,97.97725 L20.3792447,118.79725 C20.5669542,119.19725 20.3166749,119.59725 19.8536581,119.59725 L17.9014793,119.59725 C17.5310659,119.59725 17.3158257,119.41225 17.1881832,119.13975 L15.2710436,114.89975 L5.13973631,114.89975 C4.52154637,116.32225 3.87082011,117.71225 3.25263017,119.13975 C3.16002682,119.35475 2.90974749,119.59725 2.53933408,119.59725 L0.587155307,119.59725 C0.124138547,119.59725 -0.126140782,119.19725 0.0640715084,118.79725 Z" id="Fill-20"></path>
            <path d="M32.0249922,98.099 C32.0825564,97.849 32.3328358,97.634 32.5831151,97.634 L33.0761654,97.634 C33.2613721,97.634 33.5391821,97.7915 33.601752,97.9715 L40.0764782,113.7815 L40.1991151,113.7815 L46.6438078,97.9715 C46.7038749,97.7915 46.9541542,97.634 47.1693944,97.634 L47.6624447,97.634 C47.912724,97.634 48.1605006,97.849 48.2230704,98.099 L52.0323218,118.889 C52.1249251,119.319 51.9046793,119.599 51.4716961,119.599 L49.4619531,119.599 C49.1816402,119.599 48.9338637,119.384 48.8712939,119.169 L46.581238,105.3365 L46.4861318,105.3365 L40.9124112,119.569 C40.8498413,119.754 40.6646346,119.9115 40.3843218,119.9115 L39.8261989,119.9115 C39.5834279,119.9115 39.3631821,119.754 39.2981095,119.569 L33.6968581,105.3365 L33.5717184,105.3365 L31.3417296,119.169 C31.3116961,119.384 31.033886,119.599 30.7836067,119.599 L28.7688581,119.599 C28.3333721,119.599 28.1181318,119.319 28.1832045,118.889 L32.0249922,98.099 Z" id="Fill-23"></path>
            <path d="M70.1142525,107.347 C72.0989676,107.347 73.305314,105.897 73.305314,104.037 C73.305314,102.152 72.0989676,100.852 70.1142525,100.852 L65.9345877,100.852 L65.9345877,107.347 L70.1142525,107.347 Z M70.6123084,116.752 C72.4994145,116.752 73.9560402,115.302 73.9560402,113.382 C73.9560402,111.497 72.1590346,110.1345 70.1467888,110.1345 L65.9020514,110.1345 L65.9020514,116.752 L70.6123084,116.752 Z M62.7760626,98.5345 C62.7760626,98.222 63.0213363,97.942 63.364219,97.942 L70.301962,97.942 C74.0486436,97.942 76.7416492,100.4195 76.7416492,103.6645 C76.7416492,106.047 74.9771799,107.752 73.523057,108.587 C75.1648894,109.267 77.3923754,110.7845 77.3923754,113.632 C77.3923754,117.097 74.5441966,119.597 70.6423419,119.597 L63.364219,119.597 C63.0213363,119.597 62.7760626,119.3195 62.7760626,119.012 L62.7760626,98.5345 Z" id="Fill-25"></path>
            <path d="M99.351133,112.23475 L95.5443844,103.75725 L95.3867084,103.75725 L91.6049877,112.23475 L99.351133,112.23475 Z M85.3229765,118.79725 L94.8285855,97.97725 C94.9211888,97.78725 95.2015017,97.63475 95.3541721,97.63475 L95.6645184,97.63475 C95.8221944,97.63475 96.1000045,97.78725 96.1926078,97.97725 L105.63815,118.79725 C105.823356,119.19725 105.578083,119.59725 105.112563,119.59725 L103.162887,119.59725 C102.787468,119.59725 102.572228,119.41225 102.447088,119.13975 L100.529949,114.89975 L90.4011441,114.89975 C89.7804514,116.32225 89.1297251,117.71225 88.5115352,119.13975 C88.4164291,119.35475 88.1711553,119.59725 87.8007419,119.59725 L85.8460603,119.59725 C85.3830436,119.59725 85.135267,119.19725 85.3229765,118.79725 Z" id="Fill-27"></path>
            <path d="M113.534463,116.473 C113.812273,116.073 114.060049,115.608 114.337859,115.208 C114.618172,114.808 115.053658,114.6805 115.394038,114.9605 C115.579245,115.1155 117.961904,117.093 120.349569,117.093 C122.484451,117.093 123.848474,115.7955 123.848474,114.218 C123.848474,112.3605 122.236675,111.1855 119.16825,109.9155 C116.009725,108.588 113.534463,106.9455 113.534463,103.358 C113.534463,100.9455 115.394038,97.6355 120.317032,97.6355 C123.415491,97.6355 125.738083,99.2405 126.045926,99.4605 C126.296206,99.613 126.543982,100.048 126.231133,100.5105 C125.985859,100.883 125.703044,101.318 125.45777,101.688 C125.209993,102.088 124.807044,102.273 124.37406,101.9955 C124.15882,101.873 121.991401,100.453 120.191893,100.453 C117.588988,100.453 116.690485,102.088 116.690485,103.2355 C116.690485,104.998 118.054507,106.078 120.627379,107.133 C124.218887,108.588 127.287312,110.2855 127.287312,114.0605 C127.287312,117.283 124.406597,119.9105 120.379602,119.9105 C116.600384,119.9105 114.215222,117.928 113.717166,117.468 C113.439356,117.2205 113.224116,117.0005 113.534463,116.473" id="Fill-29"></path>
            <path d="M136.357685,116.473 C136.637998,116.073 136.885774,115.608 137.161082,115.208 C137.443897,114.808 137.874378,114.6805 138.21726,114.9605 C138.402467,115.1155 140.787629,117.093 143.175294,117.093 C145.310177,117.093 146.674199,115.7955 146.674199,114.218 C146.674199,112.3605 145.0624,111.1855 141.993975,109.9155 C138.837953,108.588 136.357685,106.9455 136.357685,103.358 C136.357685,100.9455 138.21726,97.6355 143.140255,97.6355 C146.238713,97.6355 148.561305,99.2405 148.871651,99.4605 C149.119428,99.613 149.367204,100.048 149.054355,100.5105 C148.811584,100.883 148.528769,101.318 148.283495,101.688 C148.033216,102.088 147.632769,102.273 147.197283,101.9955 C146.982042,101.873 144.814623,100.453 143.017618,100.453 C140.414713,100.453 139.518713,102.088 139.518713,103.2355 C139.518713,104.998 140.882735,106.078 143.450601,107.133 C147.042109,108.588 150.110534,110.2855 150.110534,114.0605 C150.110534,117.283 147.232322,119.9105 143.202825,119.9105 C139.426109,119.9105 137.040947,117.928 136.542892,117.468 C136.265082,117.2205 136.047339,117.0005 136.357685,116.473" id="Fill-31"></path>
            <path d="M171.692621,112.23475 L167.885873,103.75725 L167.728197,103.75725 L163.948979,112.23475 L171.692621,112.23475 Z M157.664465,118.79725 L167.170074,97.97725 C167.26518,97.78725 167.545493,97.63475 167.698163,97.63475 L168.011012,97.63475 C168.163683,97.63475 168.441493,97.78725 168.534096,97.97725 L177.984644,118.79725 C178.167347,119.19725 177.919571,119.59725 177.456554,119.59725 L175.504375,119.59725 C175.133962,119.59725 174.916219,119.41225 174.791079,119.13975 L172.871437,114.89975 L162.745135,114.89975 C162.124442,116.32225 161.473716,117.71225 160.855526,119.13975 C160.762923,119.35475 160.512644,119.59725 160.14223,119.59725 L158.190051,119.59725 C157.727035,119.59725 157.476755,119.19725 157.664465,118.79725 Z" id="Fill-33"></path>
            <path d="M194.520599,116.6585 C199.070677,116.6585 202.386878,113.3185 202.386878,108.7385 C202.386878,104.1935 199.070677,100.881 194.520599,100.881 L190.428532,100.881 L190.428532,116.6585 L194.520599,116.6585 Z M187.272509,98.5285 C187.272509,98.221 187.520286,97.9435 187.82813,97.9435 L194.953582,97.9435 C200.930253,97.9435 205.825716,102.801 205.825716,108.7385 C205.825716,114.7435 200.930253,119.5985 194.953582,119.5985 L187.82813,119.5985 C187.520286,119.5985 187.272509,119.321 187.272509,119.011 L187.272509,98.5285 Z" id="Fill-35"></path>
            <path d="M226.01575,116.81475 C230.445694,116.81475 234.067236,113.22475 234.067236,108.80225 C234.067236,104.41225 230.445694,100.72475 226.01575,100.72475 C221.615839,100.72475 217.994297,104.41225 217.994297,108.80225 C217.994297,113.22475 221.615839,116.81475 226.01575,116.81475 M226.01575,97.63475 C232.210163,97.63475 237.160688,102.61475 237.160688,108.80225 C237.160688,114.98975 232.210163,119.90475 226.01575,119.90475 C219.818834,119.90475 214.895839,114.98975 214.895839,108.80225 C214.895839,102.61475 219.818834,97.63475 226.01575,97.63475" id="Fill-37"></path>
            <path d="M256.548076,108.46025 C258.562825,108.46025 260.327294,106.76025 260.327294,104.62775 C260.327294,102.61525 258.562825,100.94525 256.548076,100.94525 L251.034422,100.94525 L251.034422,108.46025 L256.548076,108.46025 Z M247.783294,98.53275 C247.783294,98.22025 248.033573,97.94275 248.368947,97.94275 L256.798355,97.94275 C260.512501,97.94275 263.548389,100.88275 263.548389,104.56275 C263.548389,107.41025 261.656277,109.76275 258.968277,110.84275 L263.210512,118.70525 C263.425752,119.10525 263.210512,119.59775 262.682422,119.59775 L260.615115,119.59775 C260.369841,119.59775 260.184635,119.44775 260.122065,119.32525 L255.654579,111.12525 L250.974355,111.12525 L250.974355,119.01275 C250.974355,119.32525 250.696545,119.59775 250.383696,119.59775 L248.368947,119.59775 C248.033573,119.59775 247.783294,119.32525 247.783294,119.01275 L247.783294,98.53275 Z" id="Fill-39"></path>
            <polygon id="Fill-41" opacity="0.699999988" points="333.010163 131.37525 329.603861 131.86775 332.071616 134.26525 331.490968 137.65525 334.534364 136.05775 337.580264 137.65525 336.999616 134.26525 339.462364 131.86775 336.061068 131.37525 334.534364 128.29025"></polygon>
            <polygon id="Fill-44" opacity="0.699999988" points="352.18206 131.37525 348.780764 131.86775 351.238507 134.26525 350.662865 137.65525 353.706261 136.05775 356.752161 137.65525 356.171513 134.26525 358.634261 131.86775 355.22796 131.37525 353.706261 128.29025"></polygon>
            <polygon id="Fill-47" opacity="0.699999988" points="371.363718 131.37525 367.957417 131.86775 370.420165 134.26525 369.839517 137.65525 372.882914 136.05775 375.928813 137.65525 375.348165 134.26525 377.810914 131.86775 374.404612 131.37525 372.882914 128.29025"></polygon>
            <polygon id="Fill-50" opacity="0.699999988" points="390.535365 131.37525 387.129064 131.86775 389.591812 134.26525 389.011164 137.65525 392.054561 136.05775 395.10046 137.65525 394.519812 134.26525 396.982561 131.86775 393.581265 131.37525 392.054561 128.29025"></polygon>
            <polygon id="Fill-53" points="0.0025027933 134.2845 320.287464 134.2845 320.287464 133.2395 0.0025027933 133.2395"></polygon>
            <polygon id="Fill-55" points="406.305966 134.2845 447.356782 134.2845 447.356782 133.2395 406.305966 133.2395"></polygon>
        </g>
    </g>
</svg>