<?xml version="1.0" encoding="UTF-8"?>
<svg width="448px" height="140px" viewBox="0 0 448 140" version="1.1" xmlns="http://www.w3.org/2000/svg" xmlns:xlink="http://www.w3.org/1999/xlink">
    <!-- Generator: Sketch 49.3 (51167) - http://www.bohemiancoding.com/sketch -->
    <title>Logo</title>
    <desc>Created with Sketch.</desc>
    <defs></defs>
    <g id="Logo" stroke="none" stroke-width="1" fill="none" fill-rule="evenodd">
        <g id="Group">
            <path d="M204.653408,17.9098909 L191.235933,42.2556 L170.457743,57.3001091 L165.111777,62.3333455 L161.187397,68.3426182 L155.310838,64.0044 L143.893095,82.0999636 L145.952894,82.0999636 L155.786369,66.5185091 L161.642905,70.8466909 L161.66543,70.8065455 L178.719464,82.0999636 L178.784536,82.0999636 L185.764827,72.0234545 L196.369162,71.8377818 L216.409028,42.4086545 L251.600804,82.0999636 L253.928402,82.0999636 L218.659039,42.3158182 L243.832134,47.0053091 L244.995933,32.3321455 L236.108514,14.8613455 L225.271419,6.00174545 L211.365899,0.346254545 L204.653408,17.9098909 Z M212.357006,2.62952727 L223.737207,7.21614545 L222.002771,16.6302545 L206.730726,17.3428364 L212.357006,2.62952727 Z M217.407642,40.3110545 L223.587039,17.6263636 L225.311464,8.28501818 L234.726972,15.9854182 L243.221453,32.6909455 L242.255374,44.9378182 L217.407642,40.3110545 Z M162.613989,69.3412364 L166.380693,63.5352 L171.561475,58.6449818 L192.569922,43.4424 L205.969877,19.1268 L221.577296,18.3966545 L215.518034,40.6196727 L195.438123,70.1065091 L184.846302,70.2921818 L178.306503,79.7313818 L162.613989,69.3412364 Z" id="Fill-1" fill="#A8A398"></path>
            <path d="M303.69895,84.0144 L271.345341,56.2814182 L263.621721,50.9194909 L258.355844,61.1716364 L279.33676,82.7448 L278.090369,83.9617091 L256.673966,61.9419273 C256.416179,61.6734545 256.351106,61.2644727 256.523799,60.9332727 L262.525497,49.2384 C262.643128,49.0201091 262.848358,48.852 263.088626,48.7942909 C263.331397,48.7290545 263.591687,48.7792364 263.796916,48.9222545 L272.404022,54.8989091 L304.827709,82.6870909 L303.69895,84.0144" id="Fill-2" fill="#A8A398"></path>
            <path d="M211.073073,1.98469091 L222.012782,17.9650909 L222.731084,17.4682909 L222.263061,18.2034545 L242.575732,31.1604 L243.509274,29.6900727 L223.346771,16.8284727 L212.509676,0.9936 L211.073073,1.98469091 Z M243.168894,37.2825818 L256.406168,50.508 L263.29886,50.508 L263.29886,48.7641818 L257.124469,48.7641818 L244.395263,36.0481091 L243.168894,37.2825818 Z M195.272939,71.5718182 L205.269095,82.0999636 L207.669274,82.0999636 L196.534346,70.3699636 L195.272939,71.5718182 Z" id="Fill-3" fill="#A8A398"></path>
            <path d="M279.271687,119.033782 L291.94333,99.5155636 L291.94333,99.4528364 L280.650726,99.4528364 C280.425475,99.4528364 280.240268,99.2646545 280.240268,98.9811273 L280.240268,98.4818182 C280.240268,98.2660364 280.425475,98.0753455 280.650726,98.0753455 L293.50257,98.0753455 C293.752849,98.0753455 293.908022,98.2660364 293.908022,98.4818182 L293.908022,98.9811273 L281.208849,118.5696 L281.208849,118.599709 L292.846838,118.599709 C293.097117,118.599709 293.252291,118.785382 293.252291,119.006182 L293.252291,119.568218 C293.252291,119.789018 293.097117,119.974691 292.846838,119.974691 L279.712179,119.974691 C279.459397,119.974691 279.271687,119.819127 279.271687,119.598327 L279.271687,119.033782" id="Fill-4" fill="#A8A398"></path>
            <path d="M304.51486,98.4818182 C304.51486,98.2660364 304.707575,98.0753455 304.922816,98.0753455 L317.436782,98.0753455 C317.654525,98.0753455 317.842235,98.2660364 317.842235,98.4818182 L317.842235,99.0162545 C317.842235,99.2370545 317.654525,99.4227273 317.436782,99.4227273 L306.016536,99.4227273 L306.016536,108.056509 L315.905073,108.056509 C316.125318,108.056509 316.315531,108.244691 316.315531,108.465491 L316.315531,108.9924 C316.315531,109.2132 316.125318,109.401382 315.905073,109.401382 L306.016536,109.401382 L306.016536,118.662436 L317.436782,118.662436 C317.654525,118.662436 317.842235,118.848109 317.842235,119.068909 L317.842235,119.568218 C317.842235,119.789018 317.654525,119.974691 317.436782,119.974691 L304.922816,119.974691 C304.707575,119.974691 304.51486,119.789018 304.51486,119.568218 L304.51486,98.4818182" id="Fill-5" fill="#A8A398"></path>
            <path d="M337.501676,110.214327 C340.49752,110.214327 343.020335,107.870836 343.020335,104.7696 C343.020335,101.798836 340.49752,99.5155636 337.471642,99.5155636 L330.916827,99.5155636 L330.916827,110.214327 L337.501676,110.214327 Z M329.422659,98.4818182 C329.422659,98.2660364 329.572827,98.0753455 329.828112,98.0753455 L337.564246,98.0753455 C341.373497,98.0753455 344.522011,100.955782 344.522011,104.7696 C344.522011,107.931055 342.337073,110.462727 339.373765,111.3108 L343.928849,119.412655 C344.086525,119.661055 344.023955,119.974691 343.711106,119.974691 L342.742525,119.974691 C342.522279,119.974691 342.399642,119.881855 342.307039,119.691164 L337.779486,111.493964 C337.374034,111.526582 337.033654,111.526582 336.625698,111.526582 L330.889296,111.526582 L330.889296,119.568218 C330.889296,119.789018 330.696581,119.974691 330.383732,119.974691 L329.828112,119.974691 C329.607866,119.974691 329.422659,119.789018 329.422659,119.568218 L329.422659,98.4818182 Z" id="Fill-6" fill="#A8A398"></path>
            <path d="M358.630257,97.9825091 C358.657788,97.8595636 358.78543,97.7617091 358.908067,97.7617091 L359.25095,97.7617091 C359.406123,97.7617091 359.498726,97.8244364 359.563799,97.9825091 L365.990972,117.187091 L366.053542,117.187091 L372.510749,97.9825091 C372.575821,97.8244364 372.668425,97.7617091 372.823598,97.7617091 L373.16648,97.7617091 C373.294123,97.7617091 373.41676,97.8595636 373.449296,97.9825091 L377.87924,119.568218 C377.94181,119.881855 377.81667,119.974691 377.536358,119.974691 L376.788022,119.974691 C376.59781,119.974691 376.447642,119.819127 376.412603,119.633455 L372.88867,101.299527 L372.823598,101.299527 L366.524067,120.034909 C366.458994,120.2256 366.268782,120.288327 366.083575,120.288327 L365.955933,120.288327 C365.805765,120.288327 365.615553,120.255709 365.55048,120.034909 L359.25095,101.299527 L359.185877,101.299527 L355.661944,119.633455 C355.626905,119.819127 355.476737,119.974691 355.291531,119.974691 L354.53819,119.974691 C354.257877,119.974691 354.137743,119.881855 354.195307,119.568218 L358.630257,97.9825091" id="Fill-7" fill="#A8A398"></path>
            <path d="M401.28286,112.7184 L395.946905,100.107709 L395.886838,100.107709 L390.455777,112.7184 L401.28286,112.7184 Z M385.865654,119.598327 L395.47638,97.8244364 C395.541453,97.7014909 395.696626,97.6086545 395.854302,97.6086545 L395.946905,97.6086545 C396.102078,97.6086545 396.259754,97.6387636 396.352358,97.8244364 L405.87048,119.598327 C405.93305,119.784 405.93305,119.974691 405.590168,119.974691 L404.779263,119.974691 C404.559017,119.974691 404.403844,119.819127 404.338771,119.691164 L401.81095,113.937818 L389.895151,113.937818 L387.402369,119.691164 C387.337296,119.819127 387.177117,119.974691 386.961877,119.974691 L386.085899,119.974691 C385.865654,119.974691 385.77305,119.849236 385.865654,119.598327 Z" id="Fill-8" fill="#A8A398"></path>
            <path d="M417.698682,99.4227273 L411.739531,99.4227273 C411.426682,99.4227273 411.334078,99.2320364 411.334078,98.9510182 L411.334078,98.4818182 C411.334078,98.2309091 411.519285,98.0803636 411.739531,98.0803636 L425.154503,98.0803636 C425.407285,98.0803636 425.559955,98.2660364 425.559955,98.4818182 L425.559955,99.0162545 C425.559955,99.2320364 425.407285,99.4227273 425.154503,99.4227273 L419.165318,99.4227273 L419.165318,119.568218 C419.165318,119.789018 418.980112,119.974691 418.667263,119.974691 L418.104134,119.974691 C417.883888,119.974691 417.698682,119.789018 417.698682,119.568218 L417.698682,99.4227273" id="Fill-9" fill="#A8A398"></path>
            <path d="M439.447955,99.4227273 L433.488804,99.4227273 C433.175955,99.4227273 433.083352,99.2320364 433.083352,98.9510182 L433.083352,98.4818182 C433.083352,98.2309091 433.268559,98.0803636 433.488804,98.0803636 L446.906279,98.0803636 C447.156559,98.0803636 447.311732,98.2660364 447.311732,98.4818182 L447.311732,99.0162545 C447.311732,99.2320364 447.156559,99.4227273 446.906279,99.4227273 L440.912089,99.4227273 L440.912089,119.568218 C440.912089,119.789018 440.726883,119.974691 440.419039,119.974691 L439.853408,119.974691 C439.633162,119.974691 439.447955,119.789018 439.447955,119.568218 L439.447955,99.4227273" id="Fill-10" fill="#A8A398"></path>
            <path d="M14.0932291,112.487564 L10.2814749,103.979236 L10.1263017,103.979236 L6.34958659,112.487564 L14.0932291,112.487564 Z M0.0625698324,119.073927 L9.57318436,98.1782182 C9.66578771,97.9875273 9.94109497,97.8344727 10.0962682,97.8344727 L10.4091173,97.8344727 C10.5592849,97.8344727 10.8421006,97.9875273 10.9322011,98.1782182 L20.377743,119.073927 C20.5654525,119.475382 20.317676,119.876836 19.8521564,119.876836 L17.9024804,119.876836 C17.5295642,119.876836 17.314324,119.691164 17.1891844,119.417673 L15.2695419,115.162255 L5.13823464,115.162255 C4.52004469,116.589927 3.86931844,117.984982 3.25112849,119.417673 C3.15852514,119.633455 2.9107486,119.876836 2.5378324,119.876836 L0.588156425,119.876836 C0.122636872,119.876836 -0.125139665,119.475382 0.0625698324,119.073927 Z" id="Fill-12" fill="#807B73"></path>
            <path d="M32.0232402,98.3011636 C32.0833073,98.0502545 32.3335866,97.8344727 32.5813631,97.8344727 L33.0744134,97.8344727 C33.2621229,97.8344727 33.539933,97.9925455 33.6,98.1732 L40.0747263,114.040691 L40.1973631,114.040691 L46.6420559,98.1732 C46.7046257,97.9925455 46.9524022,97.8344727 47.1676425,97.8344727 L47.6606927,97.8344727 C47.9109721,97.8344727 48.1612514,98.0502545 48.2213184,98.3011636 L52.0330726,119.166764 C52.125676,119.598327 51.9054302,119.876836 51.4724469,119.876836 L49.4602011,119.876836 C49.1798883,119.876836 48.9321117,119.661055 48.8720447,119.445273 L46.5819888,105.562473 L46.4868827,105.562473 L40.9106592,119.849236 C40.8505922,120.034909 40.6653855,120.190473 40.3825698,120.190473 L39.8269497,120.190473 C39.581676,120.190473 39.3614302,120.034909 39.2988603,119.849236 L33.6951061,105.562473 L33.5724693,105.562473 L31.3399777,119.445273 C31.3099441,119.661055 31.0321341,119.876836 30.7818547,119.876836 L28.7696089,119.876836 C28.3341229,119.876836 28.1188827,119.598327 28.1814525,119.166764 L32.0232402,98.3011636" id="Fill-14" fill="#807B73"></path>
            <path d="M70.1132514,107.582291 C72.0979665,107.582291 73.3068156,106.127018 73.3068156,104.260255 C73.3068156,102.3684 72.0979665,101.063673 70.1132514,101.063673 L65.9335866,101.063673 L65.9335866,107.582291 L70.1132514,107.582291 Z M70.6113073,117.021491 C72.4984134,117.021491 73.9550391,115.566218 73.9550391,113.639236 C73.9550391,111.747382 72.1605363,110.379927 70.1457877,110.379927 L65.9010503,110.379927 L65.9010503,117.021491 L70.6113073,117.021491 Z M62.7750615,98.7377455 C62.7750615,98.4241091 63.0203352,98.1430909 63.3632179,98.1430909 L70.3009609,98.1430909 C74.0476425,98.1430909 76.7431508,100.627091 76.7431508,103.8864 C76.7431508,106.277564 74.9786816,107.988764 73.5220559,108.8268 C75.1638883,109.506764 77.3913743,111.032291 77.3913743,113.890145 C77.3913743,117.367745 74.5431955,119.876836 70.6413408,119.876836 L63.3632179,119.876836 C63.0203352,119.876836 62.7750615,119.598327 62.7750615,119.289709 L62.7750615,98.7377455 Z" id="Fill-15" fill="#807B73"></path>
            <path d="M99.3508827,112.487564 L95.5416313,103.979236 L95.3864581,103.979236 L91.6047374,112.487564 L99.3508827,112.487564 Z M85.3202235,119.073927 L94.8283352,98.1782182 C94.9209385,97.9875273 95.2012514,97.8344727 95.3539218,97.8344727 L95.6642682,97.8344727 C95.8219441,97.8344727 96.0997542,97.9875273 96.1923575,98.1782182 L105.637899,119.073927 C105.823106,119.475382 105.577832,119.876836 105.112313,119.876836 L103.162637,119.876836 C102.787218,119.876836 102.571978,119.691164 102.446838,119.417673 L100.529698,115.162255 L90.4008939,115.162255 C89.7802011,116.589927 89.1294749,117.984982 88.5112849,119.417673 C88.4161788,119.633455 88.170905,119.876836 87.8004916,119.876836 L85.8433073,119.876836 C85.3827933,119.876836 85.1350168,119.475382 85.3202235,119.073927 Z" id="Fill-16" fill="#807B73"></path>
            <path d="M113.534212,116.740473 C113.812022,116.339018 114.059799,115.874836 114.337609,115.470873 C114.615419,115.069418 115.053408,114.943964 115.393788,115.222473 C115.578994,115.378036 117.959151,117.362727 120.346816,117.362727 C122.484201,117.362727 123.848223,116.060509 123.848223,114.477273 C123.848223,112.615527 122.233922,111.433745 119.168,110.159127 C116.009475,108.8268 113.534212,107.180836 113.534212,103.577782 C113.534212,101.156509 115.393788,97.8344727 120.316782,97.8344727 C123.41524,97.8344727 125.737832,99.4478182 126.045676,99.6686182 C126.293453,99.8191636 126.543732,100.255745 126.230883,100.722436 C125.983106,101.093782 125.702793,101.530364 125.45752,101.901709 C125.209743,102.303164 124.806793,102.491345 124.37381,102.210327 C124.15857,102.087382 121.991151,100.662218 120.191642,100.662218 C117.588737,100.662218 116.690235,102.303164 116.690235,103.454836 C116.690235,105.223745 118.051754,106.307673 120.627128,107.366509 C124.216134,108.8268 127.287061,110.532982 127.287061,114.3192 C127.287061,117.555927 124.406346,120.190473 120.379352,120.190473 C116.597631,120.190473 114.214972,118.200764 113.716916,117.7416 C113.439106,117.490691 113.223866,117.269891 113.534212,116.740473" id="Fill-17" fill="#807B73"></path>
            <path d="M136.357184,116.740473 C136.637497,116.339018 136.885274,115.874836 137.160581,115.470873 C137.443397,115.069418 137.873877,114.943964 138.21676,115.222473 C138.401966,115.378036 140.784626,117.362727 143.174793,117.362727 C145.309676,117.362727 146.673698,116.060509 146.673698,114.477273 C146.673698,112.615527 145.061899,111.433745 141.993475,110.159127 C138.837453,108.8268 136.357184,107.180836 136.357184,103.577782 C136.357184,101.156509 138.21676,97.8344727 143.139754,97.8344727 C146.238212,97.8344727 148.560804,99.4478182 148.871151,99.6686182 C149.118927,99.8191636 149.366704,100.255745 149.053855,100.722436 C148.811084,101.093782 148.528268,101.530364 148.282994,101.901709 C148.032715,102.303164 147.632268,102.491345 147.196782,102.210327 C146.981542,102.087382 144.814123,100.662218 143.017117,100.662218 C140.414212,100.662218 139.518212,102.303164 139.518212,103.454836 C139.518212,105.223745 140.882235,106.307673 143.450101,107.366509 C147.041609,108.8268 150.110034,110.532982 150.110034,114.3192 C150.110034,117.555927 147.231821,120.190473 143.202324,120.190473 C139.425609,120.190473 137.037944,118.200764 136.542391,117.7416 C136.264581,117.490691 136.046838,117.269891 136.357184,116.740473" id="Fill-18" fill="#807B73"></path>
            <path d="M171.69162,112.487564 L167.884872,103.979236 L167.727196,103.979236 L163.947978,112.487564 L171.69162,112.487564 Z M157.663464,119.073927 L167.171575,98.1782182 C167.264179,97.9875273 167.544492,97.8344727 167.697162,97.8344727 L168.010011,97.8344727 C168.162682,97.8344727 168.440492,97.9875273 168.533095,98.1782182 L177.983642,119.073927 C178.166346,119.475382 177.91857,119.876836 177.455553,119.876836 L175.503374,119.876836 C175.132961,119.876836 174.915218,119.691164 174.790078,119.417673 L172.870436,115.162255 L162.744134,115.162255 C162.123441,116.589927 161.472715,117.984982 160.854525,119.417673 C160.761922,119.633455 160.511642,119.876836 160.141229,119.876836 L158.191553,119.876836 C157.726034,119.876836 157.475754,119.475382 157.663464,119.073927 Z" id="Fill-19" fill="#807B73"></path>
            <path d="M194.519598,116.928655 C199.072179,116.928655 202.385877,113.576509 202.385877,108.979855 C202.385877,104.415818 199.072179,101.093782 194.519598,101.093782 L190.427531,101.093782 L190.427531,116.928655 L194.519598,116.928655 Z M187.271508,98.7327273 C187.271508,98.4241091 187.519285,98.1430909 187.827128,98.1430909 L194.952581,98.1430909 C200.929251,98.1430909 205.824715,103.020764 205.824715,108.979855 C205.824715,115.006691 200.929251,119.876836 194.952581,119.876836 L187.827128,119.876836 C187.519285,119.876836 187.271508,119.598327 187.271508,119.289709 L187.271508,98.7327273 Z" id="Fill-20" fill="#807B73"></path>
            <path d="M226.014749,117.084218 C230.444693,117.084218 234.066235,113.483673 234.066235,109.042582 C234.066235,104.636618 230.444693,100.938218 226.014749,100.938218 C221.614838,100.938218 217.993296,104.636618 217.993296,109.042582 C217.993296,113.483673 221.614838,117.084218 226.014749,117.084218 M226.014749,97.8344727 C232.209162,97.8344727 237.159687,102.832582 237.159687,109.042582 C237.159687,115.252582 232.209162,120.185455 226.014749,120.185455 C219.820335,120.185455 214.894838,115.252582 214.894838,109.042582 C214.894838,102.832582 219.820335,97.8344727 226.014749,97.8344727" id="Fill-21" fill="#807B73"></path>
            <path d="M256.546324,108.698836 C258.561073,108.698836 260.325542,106.995164 260.325542,104.8524 C260.325542,102.832582 258.561073,101.156509 256.546324,101.156509 L251.03267,101.156509 L251.03267,108.698836 L256.546324,108.698836 Z M247.781542,98.7377455 C247.781542,98.4241091 248.031821,98.1430909 248.369698,98.1430909 L256.796603,98.1430909 C260.510749,98.1430909 263.546637,101.093782 263.546637,104.789673 C263.546637,107.645018 261.654525,110.008582 258.966525,111.09 L263.211263,118.981091 C263.424,119.382545 263.211263,119.876836 262.683173,119.876836 L260.613363,119.876836 C260.370592,119.876836 260.185385,119.726291 260.120313,119.603345 L255.652827,111.376036 L250.975106,111.376036 L250.975106,119.289709 C250.975106,119.603345 250.697296,119.876836 250.384447,119.876836 L248.369698,119.876836 C248.031821,119.876836 247.781542,119.603345 247.781542,119.289709 L247.781542,98.7377455 Z" id="Fill-22" fill="#807B73"></path>
            <polyline id="Fill-24" fill="#7D2E45" points="333.009162 131.697164 329.60286 132.193964 332.070615 134.597673 331.489966 138 334.535866 136.396691 337.579263 138 336.998615 134.597673 339.461363 132.193964 336.060067 131.697164 334.535866 128.600945 333.009162 131.697164"></polyline>
            <polyline id="Fill-25" fill="#7D2E45" points="352.180559 131.697164 348.779263 132.193964 351.237006 134.597673 350.661363 138 353.707263 136.396691 356.753162 138 356.170011 134.597673 358.63276 132.193964 355.226458 131.697164 353.707263 128.600945 352.180559 131.697164"></polyline>
            <polyline id="Fill-26" fill="#7D2E45" points="371.361966 131.697164 367.955665 132.193964 370.418413 134.597673 369.837765 138 372.883665 136.396691 375.929564 138 375.346413 134.597673 377.811665 132.193964 374.40286 131.697164 372.883665 128.600945 371.361966 131.697164"></polyline>
            <polyline id="Fill-27" fill="#7D2E45" points="390.535866 131.697164 387.127061 132.193964 389.592313 134.597673 389.009162 138 392.055061 136.396691 395.100961 138 394.51781 134.597673 396.983061 132.193964 393.579263 131.697164 392.055061 128.600945 390.535866 131.697164"></polyline>
            <polygon id="Fill-29" fill="#A8A398" points="0 134.617745 320.284961 134.617745 320.284961 133.568945 0 133.568945"></polygon>
            <polygon id="Fill-30" fill="#A8A398" points="406.303464 134.617745 447.356782 134.617745 447.356782 133.568945 406.303464 133.568945"></polygon>
        </g>
    </g>
</svg>