<svg xmlns="http://www.w3.org/2000/svg" width="38" height="49" viewBox="0 0 38 49" fill="none">
  <path d="M34.9481 43.858H33.5866V29.4053H34.9481C36.0882 29.4053 37.0183 28.366 37.0183 27.0857C37.0183 25.8055 36.091 24.7661 34.9481 24.7661H33.5866V15.5746C33.5894 7.26269 26.8239 0.5 18.512 0.5C10.2001 0.5 3.43177 7.26269 3.43177 15.5774V24.7689H2.07027C0.930081 24.7689 0 25.8083 0 27.0885C0 28.3688 0.927279 29.4081 2.07027 29.4081H3.43177V43.8608H2.07027C0.930081 43.8608 0 44.9001 0 46.1804C0 47.4607 0.927279 48.5 2.07027 48.5H34.9481C36.0882 48.5 37.0183 47.4607 37.0183 46.1804C37.0183 44.9001 36.091 43.8608 34.9481 43.8608V43.858ZM32.7461 43.858H26.258V29.4053H32.7461V43.858ZM18.0889 29.4053V43.858H11.6008V29.4053H18.0889ZM18.9294 29.4053H25.4175V43.858H18.9294V29.4053ZM4.27221 15.5774C4.27221 7.72773 10.6595 1.34043 18.512 1.34043C26.3644 1.34043 32.7489 7.72773 32.7489 15.5774V24.7689H29.7122V15.5466C29.7122 9.37499 24.692 4.35479 18.5204 4.35479C12.3488 4.35479 7.32859 9.37499 7.32859 15.5466V24.7689H4.27221V15.5774ZM18.9378 19.4434V5.20643C24.451 5.42775 28.8689 9.9801 28.8689 15.5466V24.7689H8.16902V15.5466C8.16902 9.9801 12.5869 5.42775 18.1002 5.20643V19.4462C18.1002 19.9869 18.9406 19.9869 18.9406 19.4462L18.9378 19.4434ZM0.843236 27.0885C0.843236 26.2733 1.39512 25.6094 2.07307 25.6094H34.9509C35.6288 25.6094 36.1807 26.2733 36.1807 27.0885C36.1807 27.9038 35.6288 28.5677 34.9509 28.5677H2.07307C1.39512 28.5677 0.843236 27.9038 0.843236 27.0885ZM4.27221 29.4081H10.7604V43.8608H4.27221V29.4081ZM2.07307 47.6596C1.39512 47.6596 0.843236 46.9956 0.843236 46.1804C0.843236 45.3652 1.39512 44.7012 2.07307 44.7012H34.9509C35.6288 44.7012 36.1807 45.3652 36.1807 46.1804C36.1807 46.9956 35.6288 47.6596 34.9509 47.6596H2.07307Z" fill="#1A1A1A"/>
  <path d="M18.5204 22.7827C18.7613 22.7827 18.9574 22.5866 18.9574 22.3457C18.9574 22.1048 18.7613 21.9087 18.5204 21.9087C18.2794 21.9087 18.0833 22.1048 18.0833 22.3457C18.0833 22.5866 18.2794 22.7827 18.5204 22.7827Z" fill="#1A1A1A"/>
</svg>