<svg xmlns="http://www.w3.org/2000/svg" width="48" height="45" viewBox="0 0 48 45" fill="none">
  <path d="M34.8176 44.2949C33.6406 44.2949 32.6861 43.3405 32.6861 42.1665V40.3765H15.3047V42.1665C15.3047 43.3405 14.3472 44.2949 13.1732 44.2949H9.12369C7.94969 44.2949 6.99524 43.3405 6.99524 42.1665V40.3674L6.59882 40.3003C4.07395 39.8703 2.24433 37.6992 2.24433 35.1377V28.7706L1.9089 28.6639C0.76539 28.3041 0 27.2582 0 26.0628C0 24.5595 1.22279 23.3336 2.72918 23.3336H4.90032V20.3605L4.5283 20.2751C3.21403 19.9763 2.25958 18.7809 2.25958 17.4331C2.25958 16.0853 3.21403 14.8899 4.5283 14.5911L4.90032 14.5057V7.95569C4.89423 3.84515 8.23938 0.5 12.353 0.5C14.6583 0.5 16.7989 1.54593 18.223 3.3664L18.4151 3.61035L18.717 3.53411C19.1439 3.42739 19.58 3.3725 20.016 3.3725C22.2634 3.3725 24.2455 4.72642 25.0627 6.82133C25.1115 6.9433 25.1084 7.07442 25.0566 7.19335C25.0048 7.30923 24.9072 7.40376 24.7883 7.4495L15.6005 11.0386C15.5426 11.0599 15.4847 11.0721 15.4237 11.0721C15.2224 11.0721 15.0456 10.9502 14.9724 10.7642C14.0515 8.40395 14.9144 5.67477 17.0276 4.27816L17.4972 3.96712L17.1161 3.55546C15.8933 2.22899 14.1582 1.46665 12.356 1.46665C8.77911 1.46665 5.86697 4.37879 5.86697 7.95569V14.5362L6.2085 14.6368C7.43739 15.0028 8.29731 16.1493 8.29731 17.4331C8.29731 18.7169 7.43739 19.8634 6.2085 20.2294L5.86697 20.33V23.3336H45.2708C46.7742 23.3336 48 24.5564 48 26.0628C48 27.2582 47.2316 28.3041 46.0911 28.6639L45.7557 28.7706V35.1377C45.7557 37.6992 43.923 39.8703 41.4012 40.3003L41.0048 40.3674V42.1665C41.0048 43.3405 40.0473 44.2949 38.8733 44.2949H34.8176ZM33.6558 42.1665C33.6558 42.7946 34.1894 43.3252 34.8176 43.3252H38.8702C39.5014 43.3252 40.032 42.7946 40.032 42.1665V40.3765H33.6558V42.1665ZM7.96188 42.1665C7.96188 42.8068 8.48332 43.3252 9.12064 43.3252H13.1702C13.8106 43.3252 14.332 42.8038 14.332 42.1665V40.3735H7.95883V42.1634L7.96188 42.1665ZM3.20793 35.1377C3.20793 37.4918 5.12293 39.4068 7.47704 39.4068H40.5169C42.871 39.4068 44.786 37.4918 44.786 35.1377V28.792H41.0993V34.5004C41.0993 34.7687 40.8828 34.9852 40.6144 34.9852H30.3259C30.0576 34.9852 29.8411 34.7687 29.8411 34.5004V28.792H22.1658C21.8975 28.792 21.681 28.5755 21.681 28.3071C21.681 28.0388 21.8975 27.8223 22.1658 27.8223H29.8411V24.3064H2.72308C1.75338 24.3064 0.963598 25.0961 0.963598 26.0658C0.963598 27.0355 1.75338 27.8223 2.72308 27.8223H14.5272C14.7955 27.8223 15.012 28.0388 15.012 28.3071C15.012 28.5755 14.7955 28.792 14.5272 28.792H3.20793V35.1377ZM30.8077 34.0155H40.1265V31.6614H30.8077V34.0155ZM30.8077 30.6917H40.1265V28.792H30.8077V30.6917ZM41.0962 27.8223H45.2678C46.2375 27.8223 47.0273 27.0355 47.0273 26.0658C47.0273 25.0961 46.2375 24.3064 45.2678 24.3064H41.0962V27.8223ZM30.8077 27.8223H40.1265V24.3064H30.8077V27.8223ZM5.16562 15.4907C4.09224 15.4907 3.22013 16.3628 3.22013 17.4362C3.22013 18.5095 4.09224 19.3816 5.16562 19.3816H5.37602C6.4494 19.3816 7.32152 18.5095 7.32152 17.4362C7.32152 16.3628 6.4494 15.4907 5.37602 15.4907H5.16562ZM20.016 4.34525C19.4641 4.34525 18.9182 4.44892 18.3998 4.65018H18.3907C16.494 5.40032 15.3474 7.33362 15.6066 9.3584L15.6859 9.96522L24.0015 6.71765L23.6509 6.21755C22.8245 5.04355 21.4645 4.3422 20.0191 4.3422L20.016 4.34525Z" fill="#1A1A1A"/>
  <path d="M23.3368 16.5549C23.1355 16.5549 22.9586 16.4329 22.8855 16.2439L21.4279 12.487C21.3303 12.237 21.4553 11.9565 21.7054 11.8589C21.7602 11.8375 21.8212 11.8253 21.8792 11.8253C22.0774 11.8253 22.2603 11.9504 22.3305 12.1364L23.7881 15.8932C23.8338 16.0152 23.8308 16.1463 23.7789 16.2652C23.7271 16.3841 23.6326 16.4756 23.5106 16.5213C23.4557 16.5427 23.3947 16.5549 23.3337 16.5549H23.3368Z" fill="#1A1A1A"/>
  <path d="M18.5249 17.7746C18.2565 17.7655 18.0461 17.5429 18.0522 17.2745L18.1803 13.2463C18.1894 12.9841 18.4029 12.7767 18.6651 12.7767H18.6804C18.9457 12.7859 19.1561 13.0085 19.15 13.2768L19.0219 17.305C19.0128 17.5673 18.8024 17.7746 18.5371 17.7746H18.5218H18.5249Z" fill="#1A1A1A"/>
  <path d="M27.9352 14.1642C27.8193 14.1642 27.7065 14.1215 27.6181 14.0453L24.5718 11.4076C24.4742 11.3222 24.4132 11.2063 24.404 11.0752C24.3949 10.9471 24.4376 10.8221 24.5199 10.7245C24.6114 10.6178 24.7456 10.5568 24.8858 10.5568C25.0017 10.5568 25.1145 10.5995 25.203 10.6757L28.2493 13.3134C28.3469 13.3988 28.4048 13.5147 28.417 13.6458C28.4262 13.7739 28.3835 13.8989 28.3011 13.9995C28.2096 14.1063 28.0755 14.1672 27.9352 14.1672V14.1642Z" fill="#1A1A1A"/>
  <path d="M18.345 28.7889C18.0766 28.7889 17.8601 28.5724 17.8601 28.3041C17.8601 28.0357 18.0766 27.8192 18.345 27.8192H18.3633C18.6316 27.8192 18.8481 28.0357 18.8481 28.3041C18.8481 28.5724 18.6316 28.7889 18.3633 28.7889H18.345Z" fill="#1A1A1A"/>
</svg>