<svg xmlns="http://www.w3.org/2000/svg" width="48" height="33" viewBox="0 0 48 33" fill="none">
  <path d="M24.0015 25.8196C23.7379 25.8196 23.5233 25.6051 23.5233 25.3414C23.5233 25.0778 23.7379 24.8632 24.0015 24.8632C24.2652 24.8632 24.4797 25.0778 24.4797 25.3414C24.4797 25.6051 24.2652 25.8196 24.0015 25.8196Z" fill="#1A1A1A"/>
  <path d="M39.9045 32.2139C38.3994 32.2139 37.1733 30.9878 37.1733 29.4827V25.8227H28.2961C28.0324 25.8227 27.8148 25.6081 27.8148 25.3414C27.8148 25.0748 28.0294 24.8602 28.2961 24.8602H44.6465C45.9677 24.8602 47.0406 23.7873 47.0406 22.4662C47.0406 21.145 45.9677 20.0721 44.6465 20.0721H3.35347C2.03231 20.0721 0.959448 21.145 0.959448 22.4662C0.959448 23.7873 2.03231 24.8602 3.35347 24.8602H19.7039C19.9676 24.8602 20.1852 25.0748 20.1852 25.3414C20.1852 25.6081 19.9706 25.8227 19.7039 25.8227H10.8267V29.4827C10.8267 30.9878 9.60061 32.2139 8.09554 32.2139C6.59046 32.2139 5.36433 30.9878 5.36433 29.4827V25.8227H3.35347C1.50508 25.8227 0 24.3176 0 22.4692C0 21.5098 0.416885 20.5932 1.1403 19.9526L1.54799 19.5939L1.1403 19.2353C0.416885 18.5977 0 17.6812 0 16.7187V9.60403C0 8.64458 0.416885 7.72805 1.1403 7.08739L1.54799 6.72875L1.1403 6.37011C0.416885 5.73252 0 4.81292 0 3.85347C0 2.95839 0.349448 2.11849 0.983971 1.48397C1.61849 0.849448 2.45839 0.5 3.35347 0.5H12.3747C14.2231 0.5 15.7282 2.00508 15.7282 3.85347C15.7282 4.44201 15.5719 5.02136 15.2776 5.53021L14.8607 6.24749H44.6465C46.4949 6.24749 48 7.75257 48 9.60097V16.7156C48 17.675 47.5862 18.5916 46.8597 19.2322L46.452 19.5909L46.8597 19.9495C47.5831 20.5871 48 21.5036 48 22.4662C48 24.3146 46.4949 25.8196 44.6465 25.8196H42.6357V29.4796C42.6357 30.9847 41.4095 32.2108 39.9045 32.2108V32.2139ZM38.1327 29.4827C38.1327 30.4605 38.9266 31.2545 39.9045 31.2545C40.8823 31.2545 41.6762 30.4605 41.6762 29.4827V25.8227H38.1327V29.4827ZM6.32684 29.4827C6.32684 30.4605 7.12076 31.2545 8.0986 31.2545C9.07644 31.2545 9.87036 30.4605 9.87036 29.4827V25.8227H6.32684V29.4827ZM3.35347 7.20694C2.03231 7.20694 0.959448 8.27981 0.959448 9.60097V16.7156C0.959448 18.0368 2.03231 19.1096 3.35347 19.1096H14.7688V7.20694H3.35347ZM15.7282 19.1096H19.9737V7.20694H15.7282V19.1096ZM20.9362 19.1096H44.6465C45.9677 19.1096 47.0406 18.0368 47.0406 16.7156V9.60097C47.0406 8.27981 45.9677 7.20694 44.6465 7.20694H20.9362V19.1096ZM3.35347 1.45945C2.03231 1.45945 0.959448 2.53231 0.959448 3.85347C0.959448 5.17463 2.03231 6.24749 3.35347 6.24749H12.3747C13.6959 6.24749 14.7688 5.17463 14.7688 3.85347C14.7688 2.53231 13.6959 1.45945 12.3747 1.45945H3.35347Z" fill="#1A1A1A"/>
</svg>