<svg xmlns="http://www.w3.org/2000/svg" width="48" height="42" viewBox="0 0 48 42" fill="none">
  <path d="M24.0015 34.6907C24.2656 34.6907 24.4797 34.4766 24.4797 34.2125C24.4797 33.9484 24.2656 33.7343 24.0015 33.7343C23.7374 33.7343 23.5233 33.9484 23.5233 34.2125C23.5233 34.4766 23.7374 34.6907 24.0015 34.6907Z" fill="#1A1A1A"/>
  <path d="M39.9045 41.085C38.3994 41.085 37.1733 39.8588 37.1733 38.3538V34.6938H28.2961C28.0324 34.6938 27.8148 34.4792 27.8148 34.2125C27.8148 33.9458 28.0294 33.7312 28.2961 33.7312H44.6465C45.9677 33.7312 47.0406 32.6584 47.0406 31.3372C47.0406 30.0161 45.9677 28.9432 44.6465 28.9432H3.35347C2.03231 28.9432 0.959448 30.0161 0.959448 31.3372C0.959448 32.6584 2.03231 33.7312 3.35347 33.7312H19.7039C19.9676 33.7312 20.1852 33.9458 20.1852 34.2125C20.1852 34.4792 19.9706 34.6938 19.7039 34.6938H10.8267V38.3538C10.8267 39.8588 9.60061 41.085 8.09554 41.085C6.59046 41.085 5.36433 39.8588 5.36433 38.3538V34.6938H3.35347C1.50508 34.6938 0 33.1887 0 31.3403C0 30.3808 0.416885 29.4643 1.1403 28.8237L1.54799 28.465L1.1403 28.1064C0.416885 27.4688 0 26.5522 0 25.5897V18.4751C0 16.9884 0.999297 15.6611 2.43081 15.2504L2.77719 15.1523V3.85347C2.77719 2.00508 4.28227 0.5 6.13373 0.5H41.8693C43.7177 0.5 45.2228 2.00508 45.2228 3.85347V15.1492L45.5692 15.2473C47.0007 15.6581 48 16.9823 48 18.472V25.5867C48 26.5461 47.5831 27.4626 46.8597 28.1033L46.452 28.4619L46.8597 28.8206C47.5831 29.4582 48 30.3747 48 31.3372C48 33.1856 46.4949 34.6907 44.6465 34.6907H42.6357V38.3507C42.6357 39.8558 41.4095 41.0819 39.9045 41.0819V41.085ZM38.1327 38.3538C38.1327 39.3316 38.9266 40.1255 39.9045 40.1255C40.8823 40.1255 41.6762 39.3316 41.6762 38.3538V34.6938H38.1327V38.3538ZM6.32684 38.3538C6.32684 39.3316 7.12076 40.1255 8.0986 40.1255C9.07644 40.1255 9.87036 39.3316 9.87036 38.3538V34.6938H6.32684V38.3538ZM3.35347 16.078C2.03231 16.078 0.959448 17.1509 0.959448 18.472V25.5867C0.959448 26.9078 2.03231 27.9807 3.35347 27.9807H44.6465C45.9677 27.9807 47.0406 26.9078 47.0406 25.5867V18.472C47.0406 17.1509 45.9677 16.078 44.6465 16.078H3.35347ZM37.1671 7.80775C39.0155 7.80775 40.5206 9.31282 40.5206 11.1612V12.7215C40.5206 13.31 40.3643 13.8894 40.07 14.3982L39.6531 15.1155H44.2603V3.85347C44.2603 2.53231 43.1874 1.45945 41.8663 1.45945H6.13373C4.81257 1.45945 3.7397 2.53231 3.7397 3.85347V15.1186H8.34689L7.93001 14.4013C7.63574 13.8924 7.4794 13.3131 7.4794 12.7245V11.1643C7.4794 9.31589 8.98448 7.81081 10.8329 7.81081H21.1263C22.0857 7.81081 23.0022 8.2277 23.6429 8.95111L24.0015 9.3588L24.3602 8.95111C24.9978 8.2277 25.9143 7.81081 26.8768 7.81081H37.1702L37.1671 7.80775ZM26.8737 8.76719C25.5526 8.76719 24.4797 9.84006 24.4797 11.1612V12.7215C24.4797 14.0426 25.5526 15.1155 26.8737 15.1155H37.1671C38.4883 15.1155 39.5611 14.0426 39.5611 12.7215V11.1612C39.5611 9.84006 38.4883 8.76719 37.1671 8.76719H26.8737ZM10.8298 8.76719C9.50865 8.76719 8.43579 9.84006 8.43579 11.1612V12.7215C8.43579 14.0426 9.50865 15.1155 10.8298 15.1155H21.1232C22.4443 15.1155 23.5172 14.0426 23.5172 12.7215V11.1612C23.5172 9.84006 22.4443 8.76719 21.1232 8.76719H10.8298Z" fill="#1A1A1A"/>
  <path d="M7.9576 25.1115C7.69398 25.1115 7.47634 24.897 7.47634 24.6303C7.47634 24.3636 7.69091 24.149 7.9576 24.149H40.0424C40.306 24.149 40.5237 24.3636 40.5237 24.6303C40.5237 24.897 40.3091 25.1115 40.0424 25.1115H7.9576Z" fill="#1A1A1A"/>
</svg>