<svg xmlns="http://www.w3.org/2000/svg" width="42" height="49" viewBox="0 0 42 49" fill="none">
  <path d="M4.32797 36.7759C4.06437 36.7759 3.84674 36.5613 3.84674 36.2946C3.84674 36.028 4.0613 35.8134 4.32797 35.8134C4.59464 35.8134 4.8092 36.028 4.8092 36.2946C4.8092 36.5613 4.59464 36.7759 4.32797 36.7759Z" fill="#1A1A1A"/>
  <path d="M10.8199 48.4969C10.5563 48.4969 10.3387 48.2824 10.3387 48.0157V26.0111H4.80613V31.982C4.80613 32.2456 4.59157 32.4632 4.3249 32.4632C4.05824 32.4632 3.84368 32.2487 3.84368 31.982V14.3973C3.84368 13.6004 3.19693 12.9536 2.4 12.9536C1.60307 12.9536 0.956322 13.6004 0.956322 14.3973V47.5345H3.84368V40.6839C3.84368 40.4203 4.05824 40.2027 4.3249 40.2027C4.59157 40.2027 4.80613 40.4172 4.80613 40.6839V48.0126C4.80613 48.2762 4.59157 48.4939 4.3249 48.4939H0.481226C0.217625 48.4939 0 48.2793 0 48.0126V14.4004C0 13.0762 1.07893 11.9973 2.40307 11.9973C3.7272 11.9973 4.80613 13.0762 4.80613 14.4004V21.208H10.3387V3.86552C10.3387 2.01111 11.8498 0.5 13.7042 0.5H29.3946C31.249 0.5 32.7602 2.01111 32.7602 3.86552V8.81264L33.1831 8.86169C37.9188 9.41648 41.4927 13.4349 41.4927 18.2103C41.4927 18.4739 41.2782 18.6916 41.0115 18.6916H19.7027C19.4391 18.6916 19.2215 18.477 19.2215 18.2103C19.2215 13.4379 22.7923 9.41954 27.531 8.86169L27.954 8.81264V6.27165C27.954 5.74138 27.5218 5.3092 26.9916 5.3092H16.1073C15.577 5.3092 15.1448 5.74138 15.1448 6.27165V48.0188C15.1448 48.2824 14.9303 48.5 14.6636 48.5H10.8169L10.8199 48.4969ZM13.7042 1.45939C12.377 1.45939 11.2981 2.53831 11.2981 3.86552V47.5375H14.1854V6.26858C14.1854 5.20805 15.0467 4.34674 16.1073 4.34674H26.9916C28.0521 4.34674 28.9134 5.20805 28.9134 6.26858V8.79425H31.8008V3.86552C31.8008 2.53831 30.7218 1.45939 29.3946 1.45939H13.7042ZM4.80613 25.0548H10.3387V22.1674H4.80613V25.0548ZM28.6345 9.75671C24.3617 9.75671 20.754 12.9536 20.2421 17.1927L20.1778 17.7291H40.5333L40.469 17.1927C39.9602 12.9536 36.3525 9.75671 32.0766 9.75671H28.6314H28.6345Z" fill="#1A1A1A"/>
  <path d="M30.3571 28.6686C29.4467 28.6686 28.6314 28.1996 28.1778 27.4119C27.7241 26.6241 27.7241 25.6831 28.1778 24.8954L29.9402 21.8395C30.0261 21.6923 30.1854 21.6004 30.3571 21.6004C30.5287 21.6004 30.6881 21.6923 30.7739 21.8395L32.5364 24.8954C32.99 25.6831 32.99 26.6241 32.5364 27.4119C32.0828 28.1996 31.2674 28.6686 30.3571 28.6686ZM29.0084 25.3736C28.7264 25.8609 28.7264 26.4433 29.0084 26.9307C29.2904 27.418 29.7931 27.7092 30.3571 27.7092C30.9211 27.7092 31.4238 27.418 31.7057 26.9307C31.9877 26.4433 31.9877 25.8609 31.7057 25.3736L30.3571 23.0379L29.0084 25.3736Z" fill="#1A1A1A"/>
  <path d="M30.3571 47.3261C29.4467 47.3261 28.6314 46.8571 28.1778 46.0693C27.7241 45.2816 27.7241 44.3406 28.1778 43.5529L29.9402 40.4969C30.0261 40.3498 30.1854 40.2579 30.3571 40.2579C30.5287 40.2579 30.6881 40.3498 30.7739 40.4969L32.5364 43.5529C32.99 44.3406 32.99 45.2816 32.5364 46.0693C32.0828 46.8571 31.2674 47.3261 30.3571 47.3261ZM29.0084 44.031C28.7264 44.5184 28.7264 45.1008 29.0084 45.5881C29.2904 46.0755 29.7931 46.3667 30.3571 46.3667C30.9211 46.3667 31.4238 46.0755 31.7057 45.5881C31.9877 45.1008 31.9877 44.5184 31.7057 44.031L30.3571 41.6954L29.0084 44.031Z" fill="#1A1A1A"/>
  <path d="M21.741 37.2969C20.8307 37.2969 20.0153 36.828 19.5617 36.0402C19.108 35.2525 19.108 34.3115 19.5617 33.5238L21.3241 30.4678C21.41 30.3207 21.5693 30.2287 21.741 30.2287C21.9126 30.2287 22.072 30.3207 22.1579 30.4678L23.9203 33.5238C24.3739 34.3115 24.3739 35.2525 23.9203 36.0402C23.4667 36.828 22.6513 37.2969 21.741 37.2969ZM20.3923 34.0019C20.1103 34.4893 20.1103 35.0716 20.3923 35.559C20.6743 36.0464 21.177 36.3375 21.741 36.3375C22.305 36.3375 22.8077 36.0464 23.0897 35.559C23.3716 35.0716 23.3716 34.4893 23.0897 34.0019L21.741 31.6663L20.3923 34.0019Z" fill="#1A1A1A"/>
  <path d="M38.9732 37.2969C38.0628 37.2969 37.2475 36.828 36.7939 36.0402C36.3402 35.2525 36.3402 34.3115 36.7939 33.5238L38.5563 30.4678C38.6421 30.3207 38.8015 30.2287 38.9732 30.2287C39.1448 30.2287 39.3042 30.3207 39.39 30.4678L41.1525 33.5238C41.6061 34.3115 41.6061 35.2525 41.1525 36.0402C40.6988 36.828 39.8835 37.2969 38.9732 37.2969ZM37.6245 34.0019C37.3425 34.4893 37.3425 35.0716 37.6245 35.559C37.9065 36.0464 38.4092 36.3375 38.9732 36.3375C39.5372 36.3375 40.0398 36.0464 40.3218 35.559C40.6038 35.0716 40.6038 34.4893 40.3218 34.0019L38.9732 31.6663L37.6245 34.0019Z" fill="#1A1A1A"/>
</svg>