<svg xmlns="http://www.w3.org/2000/svg" width="48" height="40" viewBox="0 0 48 40" fill="none">
  <path d="M15.874 39.7032C15.6117 39.7032 15.3952 39.4897 15.3952 39.2244V38.267C15.3952 36.4222 16.8954 34.919 18.7432 34.919H21.6125V30.1379H2.39055C1.07331 30.1379 0 29.0646 0 27.7474V2.89055C0 1.57331 1.07331 0.5 2.39055 0.5H45.6095C46.9267 0.5 48 1.57331 48 2.89055V27.7504C48 29.0677 46.9267 30.141 45.6095 30.141H26.3906V34.9221H29.2598C31.1046 34.9221 32.6078 36.4222 32.6078 38.27V39.2275C32.6078 39.4897 32.3944 39.7062 32.1291 39.7062H15.874V39.7032ZM18.7432 35.8795C17.426 35.8795 16.3527 36.9528 16.3527 38.27V38.7488H31.6504V38.27C31.6504 36.9528 30.5771 35.8795 29.2598 35.8795H18.7432ZM22.5669 34.9221H25.4362V30.141H22.5669V34.9221ZM2.39055 1.45744C1.60081 1.45744 0.957439 2.10081 0.957439 2.89055V27.7504C0.957439 28.5401 1.60081 29.1835 2.39055 29.1835H45.6095C46.3992 29.1835 47.0426 28.5401 47.0426 27.7504V2.89055C47.0426 2.10081 46.3992 1.45744 45.6095 1.45744H2.39055Z" fill="#1A1A1A"/>
  <path d="M20.4142 20.4842C20.3319 20.4842 20.2465 20.4629 20.1733 20.4202C20.0269 20.3348 19.9355 20.1763 19.9355 20.0055V11.724C19.9355 11.5532 20.0269 11.3947 20.1733 11.3093C20.2465 11.2666 20.3288 11.2453 20.4111 11.2453C20.4935 11.2453 20.5788 11.2666 20.649 11.3093L27.8206 15.4501C27.967 15.5354 28.0584 15.694 28.0584 15.8648C28.0584 16.0355 27.967 16.1941 27.8206 16.2794L20.649 20.4202C20.5758 20.4629 20.4935 20.4842 20.4111 20.4842H20.4142ZM20.8929 19.1792L26.6314 15.8678L20.8929 12.5564V19.1823V19.1792Z" fill="#1A1A1A"/>
  <path d="M35.0105 14.7366C34.7453 14.7366 34.5318 14.5231 34.5318 14.2578C34.5318 13.9926 34.7453 13.7791 35.0105 13.7791C35.2758 13.7791 35.4893 13.9926 35.4893 14.2578C35.4893 14.5231 35.2758 14.7366 35.0105 14.7366Z" fill="#1A1A1A"/>
  <path d="M4.87562 25.2653C4.61339 25.2653 4.3969 25.0519 4.3969 24.7866V5.85434C4.3969 5.59211 4.61034 5.37562 4.87562 5.37562H43.1213C43.3836 5.37562 43.6001 5.58906 43.6001 5.85434V24.7866C43.6001 25.0488 43.3866 25.2653 43.1213 25.2653H4.87562ZM10.2848 18.6121C10.4129 18.6121 10.5318 18.6608 10.6233 18.7523C10.8093 18.9383 10.8093 19.2432 10.6233 19.4292L5.74158 24.3109H42.6457V7.29964L38.0536 11.8917C37.9621 11.9832 37.8432 12.032 37.7152 12.032C37.5871 12.032 37.4682 11.9832 37.3767 11.8917C37.1907 11.7057 37.1907 11.4008 37.3767 11.2148L42.2584 6.33306H5.35434V23.3444L9.94639 18.7523C10.0379 18.6608 10.1568 18.6121 10.2848 18.6121Z" fill="#1A1A1A"/>
  <path d="M12.9925 16.8649C12.7272 16.8649 12.5138 16.6514 12.5138 16.3862C12.5138 16.1209 12.7272 15.9074 12.9925 15.9074C13.2578 15.9074 13.4712 16.1209 13.4712 16.3862C13.4712 16.6514 13.2578 16.8649 12.9925 16.8649Z" fill="#1A1A1A"/>
</svg>