<svg xmlns="http://www.w3.org/2000/svg" width="48" height="40" viewBox="0 0 48 40" fill="none">
  <path d="M3.57672 14.7884C3.44865 14.7884 3.32669 14.7365 3.23826 14.6481L0.384245 11.7971C0.131165 11.5471 -0.00299832 11.2087 5.08445e-05 10.8519C0.00614917 10.4952 0.14946 10.1658 0.405589 9.92191C6.79663 3.84493 15.1757 0.5 24 0.5C32.8243 0.5 41.2034 3.84493 47.5944 9.92191C47.8505 10.1658 47.9969 10.4982 48 10.8519C48.003 11.2087 47.8688 11.5441 47.6158 11.7971L45.3441 14.0657C45.0941 14.3158 44.7648 14.453 44.4172 14.453C44.0696 14.453 43.7586 14.3249 43.5116 14.0901C38.2182 9.08644 31.2875 6.33305 24 6.33305C16.7125 6.33305 9.27865 9.28768 3.91517 14.6512C3.82675 14.7396 3.70478 14.7914 3.57672 14.7914V14.7884ZM24 1.45744C15.4715 1.45744 7.35768 4.67735 1.15873 10.5256L0.80198 10.8641L3.57672 13.6388L3.91517 13.3217C9.36707 8.19608 16.5021 5.37561 24 5.37561C31.4979 5.37561 38.6238 8.19608 44.0848 13.3156L44.4233 13.6327L47.198 10.8611L46.8382 10.5226C40.6423 4.67735 32.5285 1.45744 24 1.45744Z" fill="#1A1A1A"/>
  <path d="M10.4891 21.3563C10.1385 21.3563 9.80915 21.2191 9.55912 20.969L7.2875 18.6974C7.03442 18.4443 6.8972 18.1059 6.9033 17.7461C6.9094 17.3893 7.06186 17.0478 7.32409 16.8039C11.8673 12.5777 17.7888 10.2512 23.9999 10.2512C30.2111 10.2512 36.1326 12.5777 40.6758 16.8039C40.935 17.0448 41.0905 17.3893 41.0966 17.7461C41.1027 18.1059 40.9655 18.4443 40.7124 18.6974L38.4408 20.969C38.1907 21.2191 37.8614 21.3563 37.5108 21.3563C37.1845 21.3563 36.8705 21.2343 36.6265 21.0087C33.9738 18.5663 30.699 16.9563 27.1589 16.3526C27.0339 16.3312 26.9241 16.2611 26.8479 16.1574C26.7747 16.0538 26.7442 15.9257 26.7655 15.8007C26.8052 15.569 27.0034 15.4013 27.2351 15.4013C27.2626 15.4013 27.29 15.4013 27.3174 15.4074C30.9978 16.0355 34.4098 17.7003 37.1845 20.222L37.523 20.5299L40.2977 17.7552L39.9318 17.4167C35.5776 13.4101 29.9214 11.2056 23.9999 11.2056C18.0785 11.2056 12.4223 13.4132 8.06808 17.4167L7.70218 17.7552L10.4769 20.5299L10.8154 20.222C13.2456 18.0144 16.2063 16.441 19.3835 15.6726C19.4201 15.6635 19.4597 15.6604 19.4963 15.6604C19.7159 15.6604 19.908 15.8098 19.9598 16.0263C19.9903 16.1513 19.969 16.2794 19.9019 16.3861C19.8348 16.4959 19.7311 16.5721 19.6061 16.6026C16.5478 17.3405 13.7029 18.8621 11.3734 21.0056C11.1294 21.2282 10.8154 21.3532 10.4891 21.3532V21.3563Z" fill="#1A1A1A"/>
  <path d="M30.6044 28.2657C30.2934 28.2657 29.9916 28.1528 29.7476 27.9455C28.1468 26.5856 26.1039 25.8385 23.9999 25.8385C21.896 25.8385 19.8531 26.5856 18.2523 27.9455C18.0083 28.1498 17.7065 28.2657 17.3955 28.2657C17.0509 28.2657 16.7247 28.1285 16.4777 27.8815L14.1969 25.6007C13.9408 25.3446 13.8005 24.9909 13.8127 24.628C13.8249 24.2682 13.9835 23.9298 14.2518 23.6919C16.9442 21.3136 20.405 20.0024 24.003 20.0024C27.601 20.0024 31.0618 21.3136 33.7542 23.6919C34.0225 23.9298 34.1811 24.2682 34.1933 24.628C34.2055 24.9909 34.0652 25.3446 33.8091 25.6007L31.5283 27.8815C31.2813 28.1285 30.9551 28.2657 30.6105 28.2657H30.6044ZM23.9999 20.9629C20.6886 20.9629 17.49 22.1551 14.9897 24.32L14.6024 24.6555L17.3802 27.4302L17.7156 27.1527C19.475 25.6891 21.71 24.8841 24.003 24.8841C26.296 24.8841 28.531 25.6891 30.2904 27.1527L30.6258 27.4302L33.4005 24.6555L33.0133 24.32C30.513 22.1551 27.3144 20.9629 24.003 20.9629H23.9999Z" fill="#1A1A1A"/>
  <path d="M24.006 39.7031C21.2649 39.7031 19.0329 37.4741 19.0329 34.7329C19.0329 33.4065 19.5512 32.1564 20.4873 31.2173C21.4265 30.2781 22.6766 29.7628 24.003 29.7628C25.3294 29.7628 26.5795 30.2812 27.5187 31.2173C28.4578 32.1564 28.9762 33.4065 28.9762 34.7329C28.9762 37.4741 26.7442 39.7031 24.003 39.7031H24.006ZM24.006 30.7172C22.9327 30.7172 21.9235 31.1349 21.1673 31.8942C20.408 32.6534 19.9903 33.6627 19.9903 34.7329C19.9903 36.9466 21.7924 38.7487 24.006 38.7487C26.2197 38.7487 28.0218 36.9466 28.0218 34.7329C28.0218 33.6596 27.6041 32.6534 26.8448 31.8942C26.0856 31.1349 25.0763 30.7172 24.006 30.7172Z" fill="#1A1A1A"/>
  <path d="M23.4176 16.0812C23.1523 16.0812 22.9388 15.8678 22.9388 15.6025C22.9388 15.3372 23.1523 15.1238 23.4176 15.1238C23.6828 15.1238 23.8963 15.3372 23.8963 15.6025C23.8963 15.8678 23.6828 16.0812 23.4176 16.0812Z" fill="#1A1A1A"/>
</svg>